HIERARCHY
ROOT Hips
{
	OFFSET 0.000000 0.000000 0.000000 
	CHANNELS 6 Xposition Yposition Zposition Yrotation Zrotation Xrotation 
	JOINT Lumbar
	{
		OFFSET 0.000000 0.000000 0.000000 
		CHANNELS 3 Zrotation Xrotation Yrotation
		JOINT Neck
		{
			OFFSET 0.000000 0.445665 0.000000 
			CHANNELS 3 Zrotation Xrotation Yrotation
			End Site
			{
				OFFSET 0.000000 0.227535 0.000000 
			}
		}
		JOINT RightShoulder
		{
			OFFSET 0.019635 0.377685 0.194865 
			CHANNELS 3 Zrotation Xrotation Yrotation
			JOINT RightElbow
			{
				OFFSET 0.000000 -0.243375 0.000000 
				CHANNELS 2 Zrotation Yrotation
				JOINT RightWrist
				{
					OFFSET 0.000000 -0.264825 0.000000 
					CHANNELS 2 Zrotation Xrotation
					End Site
					{
						OFFSET 0.006600 -0.176220 0.000990 
					}
				}
			}
		}
		JOINT LeftShoulder
		{
			OFFSET 0.019635 0.377685 -0.194865 
			CHANNELS 3 Zrotation Xrotation Yrotation
			JOINT LeftElbow
			{
				OFFSET 0.000000 -0.243375 0.000000 
				CHANNELS 2 Zrotation Yrotation
				JOINT LeftWrist
				{
					OFFSET 0.000000 -0.264825 0.000000 
					CHANNELS 2 Zrotation Xrotation
					End Site
					{
						OFFSET 0.006600 -0.176220 -0.000990 
					}
				}
			}
		}
	}
	JOINT RightHip
	{
		OFFSET 0.052140 -0.069960 0.075570 
		CHANNELS 3 Zrotation Xrotation Yrotation
		JOINT RightKnee
		{
			OFFSET 0.000000 -0.402270 0.000000 
			CHANNELS 1 Zrotation
			JOINT RightAnkle
			{
				OFFSET 0.000000 -0.404085 0.000000 
				CHANNELS 3 Zrotation Xrotation Yrotation
				End Site
				{
					OFFSET 0.204105 -0.089430 0.008415 
				}
			}
		}
	}
	JOINT LeftHip
	{
		OFFSET 0.052140 -0.069960 -0.075570 
		CHANNELS 3 Zrotation Xrotation Yrotation
		JOINT LeftKnee
		{
			OFFSET 0.000000 -0.402270 0.000000 
			CHANNELS 1 Zrotation
			JOINT LeftAnkle
			{
				OFFSET 0.000000 -0.404085 0.000000 
				CHANNELS 3 Zrotation Xrotation Yrotation
				End Site
				{
					OFFSET 0.204105 -0.089430 -0.008415 
				}
			}
		}
	}
}
MOTION
Frames: 33
Frame Time: 0.02
0.00061 -0 -0.00457 -14.76287 -23.34655 0.97478 45.90962 2.26517 -6.09833 -14.11961 -4.09602 -0.10586 -23.95712 -9.99789 -4.95057 37.41075 113.71738 11.38724 4.32975 -28.22006 12.02263 -2.11291 40.96403 -93.23511 11.06096 0.58598 35.79994 0.29001 -7.32287 -20.06601 -7.53832 -3.83041 -2.68514 36.12162 7.13872 4.6263 -26.72391 -8.80805 5.05389 3.44457
0.00036 -7e-05 -0.0034 -14.66046 -23.50249 0.92108 45.96788 2.2009 -6.30099 -14.12311 -4.13658 -0.10667 -23.98841 -9.94734 -4.80771 37.48414 113.71825 11.37922 4.33329 -28.21592 12.16757 -2.18153 40.95514 -93.23353 11.03146 0.58081 35.98374 0.36889 -7.51215 -20.11573 -7.53721 -3.82104 -2.68017 36.32688 7.26044 4.57562 -26.75969 -8.78517 5.03401 3.43312
0.00011 -0.00014 -0.00222 -14.55812 -23.65782 0.86749 46.02549 2.13663 -6.50318 -14.12657 -4.1771 -0.10753 -24.0197 -9.8968 -4.66522 37.55734 113.71886 11.37118 4.33673 -28.21163 12.31238 -2.24986 40.94621 -93.23181 11.00204 0.57566 36.16685 0.44775 -7.70099 -20.1653 -7.53611 -3.81174 -2.67524 36.53143 7.38195 4.52469 -26.79532 -8.76239 5.0142 3.42171
-0.00014 -0.00022 -0.00105 -14.45598 -23.81324 0.81395 46.08349 2.07253 -6.70526 -14.13006 -4.21754 -0.10834 -24.0509 -9.84636 -4.52284 37.6305 113.71992 11.36321 4.34029 -28.20748 12.45692 -2.31827 40.93735 -93.2302 10.97262 0.57051 36.35005 0.52641 -7.88968 -20.21487 -7.53501 -3.80242 -2.67029 36.73603 7.50331 4.4741 -26.83098 -8.73959 4.99438 3.41029
-0.00039 -0.00029 0.00012 -14.35385 -23.96935 0.76032 46.14233 2.00848 -6.90771 -14.13358 -4.258 -0.1091 -24.08206 -9.79601 -4.37998 37.70386 113.72069 11.35517 4.34386 -28.20351 12.60146 -2.38695 40.92851 -93.2288 10.94313 0.56534 36.53403 0.605 -8.07883 -20.2646 -7.5339 -3.79301 -2.6653 36.9414 7.62485 4.42395 -26.86681 -8.71669 4.97447 3.39883
-0.00064 -0.00036 0.0013 -14.25111 -24.12305 0.70683 46.19735 1.94376 -7.10935 -14.13692 -4.29864 -0.11016 -24.11365 -9.74511 -4.2382 37.77674 113.72064 11.34709 4.34696 -28.19852 12.74682 -2.45454 40.91939 -93.22643 10.91389 0.56024 36.7153 0.68442 -8.26704 -20.31384 -7.53283 -3.78394 -2.66048 37.14423 7.74628 4.37141 -26.90201 -8.69416 4.95486 3.38753
-0.00088 -0.00043 0.00246 -14.14968 -24.28134 0.65311 46.25998 1.88047 -7.31248 -14.14063 -4.33883 -0.11061 -24.14431 -9.69521 -4.09479 37.85046 113.72388 11.33936 4.35133 -28.19567 12.89036 -2.52432 40.91093 -93.22594 10.88413 0.55501 36.90172 0.76209 -8.45674 -20.36399 -7.53169 -3.77423 -2.65533 37.35185 7.86775 4.32364 -26.93843 -8.6709 4.93469 3.37591
-0.00114 -0.0005 0.00364 -14.04707 -24.43557 0.59963 46.3156 1.81585 -7.51407 -14.14401 -4.37951 -0.11162 -24.17587 -9.64468 -3.95215 37.92347 113.72108 11.3308 4.35393 -28.19069 13.03563 -2.59199 40.90172 -93.22387 10.85493 0.54991 37.08358 0.84136 -8.64543 -20.41331 -7.53059 -3.76505 -2.65046 37.55525 7.98928 4.27164 -26.97373 -8.64831 4.91502 3.36458
-0.0014 -0.00058 0.00485 -13.94282 -24.58419 0.5463 46.36254 1.7496 -7.71454 -14.14691 -4.42055 -0.11333 -24.20841 -9.59219 -3.81331 37.9954 113.7228 11.32326 4.35671 -28.1837 13.18294 -2.65742 40.89215 -93.21925 10.82607 0.54492 37.25916 0.92273 -8.83155 -20.46161 -7.52964 -3.75674 -2.64603 37.75279 8.11059 4.21371 -27.00768 -8.62657 4.89602 3.35362
-0.0016 -0.00063 0.00591 -13.84743 -24.76314 0.49168 46.45912 1.69269 -7.92375 -14.15236 -4.45879 -0.11108 -24.23496 -9.54741 -3.66117 38.07289 113.73432 11.31596 4.36549 -28.19006 13.31827 -2.73675 40.88629 -93.22741 10.7942 0.53912 37.46875 0.99242 -9.02845 -20.51577 -7.52813 -3.74411 -2.63939 37.98191 8.23227 4.18759 -27.04944 -8.60003 4.87335 3.34062
-0.00195 -0.00074 0.00728 -13.73375 -24.87935 0.44006 46.45121 1.61614 -8.11303 -14.15254 -4.50339 -0.11711 -24.27433 -9.48864 -3.53166 38.13909 113.70229 11.30426 4.35715 -28.16712 13.47898 -2.78611 40.87157 -93.20982 10.76939 0.53514 37.60797 1.08648 -9.20514 -20.55759 -7.5276 -3.74015 -2.63719 38.14578 8.35371 4.0959 -27.0747 -8.58358 4.85829 3.33186
-0.00271 -0.00104 0.00949 -13.56581 -24.81141 0.39458 46.1516 1.48466 -8.25937 -14.13719 -4.56193 -0.14674 -24.34776 -9.37235 -3.5106 38.17056 113.74433 11.31363 4.33947 -28.07214 13.70915 -2.75785 40.84066 -93.11068 10.75832 0.53522 37.54082 1.25057 -9.30409 -20.56514 -7.53164 -3.76405 -2.64933 38.11753 8.46938 3.80681 -27.05433 -8.59566 4.86562 3.33557
-0.00364 -0.0014 0.01203 -13.38023 -24.68278 0.3526 45.74799 1.3337 -8.3834 -14.11677 -4.62753 -0.18452 -24.43428 -9.24547 -3.50453 38.19157 113.71181 11.31341 4.29865 -27.94609 13.96473 -2.69868 40.79924 -92.98751 10.75542 0.53728 37.40559 1.43861 -9.38615 -20.5604 -7.53635 -3.796 -2.6656 38.02625 8.58522 3.45314 -27.01743 -8.61796 4.88046 3.34351
-0.00451 -0.00173 0.01444 -13.20542 -24.58965 0.31028 45.39526 1.19226 -8.51014 -14.09931 -4.69214 -0.218 -24.51555 -9.13605 -3.46022 38.21957 113.5805 11.29472 4.24254 -27.82895 14.20896 -2.65062 40.75742 -92.88267 10.75243 0.53904 37.31004 1.61354 -9.49143 -20.56155 -7.53951 -3.82151 -2.67852 37.97226 8.705 3.14292 -26.9883 -8.63471 4.89066 3.34886
-0.00533 -0.00205 0.01677 -13.01906 -24.46262 0.26231 45.02714 1.04777 -8.66872 -14.07889 -4.74724 -0.25401 -24.59386 -8.97362 -3.54503 38.23736 113.98825 11.36843 4.29113 -27.73417 14.45289 -2.61478 40.73783 -92.74727 10.73404 0.53833 37.17695 1.79765 -9.53407 -20.56135 -7.54782 -3.85837 -2.69746 37.88134 8.81002 2.78113 -26.95807 -8.65429 4.90541 3.3566
-0.00628 -0.00241 0.01934 -12.85241 -24.39226 0.2274 44.66632 0.90528 -8.75504 -14.06367 -4.82403 -0.28667 -24.6815 -8.91861 -3.36897 38.2749 113.28174 11.25234 4.1214 -27.58493 14.70286 -2.54629 40.66895 -92.66887 10.74979 0.54316 37.10652 1.96867 -9.69938 -20.5611 -7.54571 -3.87398 -2.7051 37.85277 8.94308 2.50131 -26.9262 -8.67167 4.91329 3.36091
-0.00752 -0.00284 0.02253 -12.74561 -24.48944 0.22372 44.35197 0.77106 -8.65309 -14.06198 -4.95708 -0.30821 -24.79092 -9.16729 -2.42992 38.361 109.29036 10.57205 3.30911 -27.2976 14.96826 -2.39442 40.4709 -92.76643 10.85754 0.56264 37.22079 2.09452 -10.24038 -20.56325 -7.51351 -3.82501 -2.67839 38.00883 9.17768 2.55397 -26.89396 -8.6692 4.89296 3.34985
-0.00888 -0.00331 0.02596 -12.65875 -24.64634 0.23384 44.04826 0.64003 -8.47822 -14.06611 -5.112 -0.32607 -24.90921 -9.52377 -1.23514 38.46869 104.2216 9.70889 2.28616 -26.95575 15.23774 -2.21104 40.22295 -92.92291 10.99998 0.58715 37.40122 2.20687 -10.89941 -20.56584 -7.47103 -3.75512 -2.64059 38.23036 9.43646 2.6768 -26.8606 -8.66599 4.86665 3.33596
-0.01019 -0.00377 0.02928 -12.56246 -24.7786 0.24024 43.73939 0.50871 -8.33281 -14.06885 -5.25824 -0.34555 -25.02424 -9.8278 -0.1829 38.5724 99.79556 8.95742 1.38969 -26.63569 15.50237 -2.04241 39.99483 -93.04015 11.12602 0.61009 37.55488 2.32757 -11.48271 -20.56859 -7.43402 -3.69739 -2.60929 38.42397 9.66772 2.70541 -26.8277 -8.67084 4.84817 3.3267
-0.0115 -0.00422 0.03259 -12.46842 -24.8988 0.23587 43.42899 0.37132 -8.20172 -14.06597 -5.39973 -0.36555 -25.13739 -10.14545 0.9802 38.6521 94.72402 8.08539 0.36349 -26.32682 15.78138 -1.87032 39.7778 -93.19641 11.25273 0.63211 37.69302 2.44011 -12.15815 -20.56953 -7.39367 -3.62871 -2.57196 38.60785 9.96681 2.98553 -26.79449 -8.64455 4.80915 3.30398
-0.01283 -0.0047 0.03599 -12.37304 -25.05834 0.25732 43.12474 0.24819 -8.02434 -14.07641 -5.55583 -0.38346 -25.25523 -10.46125 1.97299 38.78586 90.73774 7.42061 -0.44332 -25.98253 16.03004 -1.69906 39.52664 -93.30168 11.38903 0.65465 37.87911 2.56567 -12.67059 -20.57432 -7.35783 -3.5778 -2.54451 38.82809 10.13282 2.77106 -26.76181 -8.68144 4.81042 3.30794
-0.01417 -0.00526 0.03964 -12.28293 -25.31809 0.3452 42.84327 0.15855 -7.73219 -14.12099 -5.74966 -0.3967 -25.39349 -10.73892 2.43575 39.07329 90.05029 7.37784 -0.58306 -25.55111 16.20255 -1.53262 39.18743 -93.11039 11.51844 0.70018 38.18916 2.73433 -12.69812 -20.59114 -7.33689 -3.58077 -2.54698 39.1351 9.90409 1.07312 -26.73214 -8.90466 4.93275 3.39179
-0.01551 -0.00586 0.04337 -12.18822 -25.6142 0.45883 42.56672 0.08427 -7.39697 -14.17919 -5.95662 -0.40789 -25.5341 -11.01228 2.71776 39.41201 90.48545 7.54912 -0.49638 -25.08714 16.34262 -1.36962 38.81671 -92.88894 11.6605 0.74233 38.54345 2.91571 -12.55863 -20.61153 -7.32082 -3.60237 -2.55977 39.47613 9.54455 -1.10575 -26.70342 -9.18928 5.09423 3.50155
-0.01685 -0.00644 0.04706 -12.08671 -25.89034 0.56159 42.28271 0.00628 -7.08477 -14.23177 -6.15609 -0.41983 -25.6675 -11.29205 3.08088 39.72175 90.38175 7.61911 -0.51971 -24.63933 16.49171 -1.20814 38.46446 -92.77832 11.81359 0.77035 38.8735 3.08862 -12.49966 -20.62942 -7.3026 -3.61563 -2.56788 39.80061 9.25898 -2.9983 -26.67278 -9.43808 5.2323 3.59583
-0.01821 -0.00703 0.05079 -12.02371 -26.18444 0.66134 42.02038 -0.08576 -6.75554 -14.28144 -6.36389 -0.4324 -25.82795 -11.55687 3.45765 40.05871 90.3613 7.69945 -0.52067 -24.18162 16.66513 -1.03097 38.09314 -92.27333 11.89879 0.86242 39.22575 3.27246 -12.42563 -20.65129 -7.28388 -3.62763 -2.57556 40.13277 8.91314 -5.17499 -26.64612 -9.72022 5.39394 3.70567
-0.01952 -0.0076 0.05445 -11.87878 -26.44729 0.77329 41.7148 -0.1445 -6.45238 -14.34122 -6.55572 -0.44324 -25.93146 -11.85027 3.75924 40.34767 90.44838 7.8117 -0.51133 -23.74027 16.78011 -0.88967 37.75444 -92.56473 12.12578 0.82307 39.53831 3.43668 -12.34137 -20.66538 -7.26734 -3.64697 -2.58674 40.45513 8.66118 -6.87439 -26.61423 -9.94756 5.5158 3.78926
-0.02082 -0.00811 0.05788 -11.51216 -26.62904 0.91249 41.28165 -0.11861 -6.23275 -14.41795 -6.71206 -0.44962 -25.88593 -12.22397 3.89934 40.51832 90.56397 7.95888 -0.53062 -23.32972 16.74157 -0.8295 37.5164 -95.20648 12.75924 0.39765 39.75611 3.54391 -12.27269 -20.6598 -7.25709 -3.68199 -2.60512 40.75147 8.7026 -7.14257 -26.5457 -10.00825 5.51867 3.79433
-0.02206 -0.00859 0.06124 -11.0628 -26.77499 1.06301 40.80628 -0.05914 -6.0407 -14.50573 -6.8492 -0.45436 -25.78119 -12.62568 3.96774 40.63345 90.75527 8.13214 -0.54565 -22.94177 16.64537 -0.80838 37.31224 -98.62153 13.53104 -0.15503 39.92694 3.63096 -12.19843 -20.64564 -7.24869 -3.72385 -2.62669 41.03527 8.84238 -6.9131 -26.47749 -10.01182 5.48012 3.77208
-0.02325 -0.00908 0.06463 -10.64862 -26.92801 1.20842 40.35446 -0.01265 -5.83613 -14.59346 -6.98767 -0.46 -25.698 -13.0142 4.06723 40.75673 90.91076 8.29455 -0.56085 -22.55772 16.57554 -0.78107 37.09059 -101.59052 14.22801 -0.6343 40.10257 3.72714 -12.12405 -20.63379 -7.23852 -3.76276 -2.64681 41.31759 8.93573 -6.90922 -26.42157 -10.04167 5.46024 3.76216
-0.02476 -0.00959 0.06803 -10.24334 -27.12187 1.35473 39.88348 0.02495 -5.63125 -14.66082 -7.15919 -0.46497 -25.63816 -13.4058 4.16943 40.95527 91.10258 8.45889 -0.57706 -22.11043 16.50368 -0.70619 36.87559 -104.96647 14.97753 -1.18121 40.35115 3.82398 -12.05473 -20.6293 -7.23232 -3.80172 -2.66731 41.62907 9.03226 -6.92543 -26.30689 -10.072 5.44226 3.75341
-0.02559 -0.01006 0.07138 -9.80139 -27.2208 1.50136 39.44349 0.08857 -5.43252 -14.77286 -7.25542 -0.47091 -25.5148 -13.79612 4.24807 40.98152 91.23235 8.62413 -0.59147 -21.80345 16.423 -0.73821 36.65654 -107.6682 15.64832 -1.61517 40.43414 3.91442 -11.97623 -20.60676 -7.21837 -3.84183 -2.68761 41.87937 9.1467 -6.77417 -26.32257 -10.08734 5.41012 3.73549
-0.02468 -0.01044 0.07465 -9.26632 -27.07422 1.64772 39.08994 0.21815 -5.25773 -15.00696 -7.16339 -0.4804 -25.23731 -14.18911 4.30718 40.56032 91.07814 8.77154 -0.61727 -21.85525 16.33031 -1.06775 36.40757 -108.41393 16.08515 -1.72599 40.0877 3.99221 -11.87031 -20.54161 -7.18134 -3.88451 -2.70687 41.93888 9.29135 -6.28965 -26.63039 -10.07133 5.34753 3.69791
-0.02307 -0.01079 0.07787 -8.69972 -26.83205 1.79378 38.77113 0.37222 -5.08555 -15.28508 -6.9936 -0.49084 -24.89675 -14.5773 4.34062 39.96521 90.86829 8.9201 -0.64019 -22.05222 16.23115 -1.501 36.15595 -108.44009 16.43528 -1.71561 39.57322 4.06388 -11.75718 -20.45752 -7.13666 -3.92775 -2.72567 41.9423 9.45007 -5.64973 -27.08183 -10.04238 5.27208 3.65203
